<svg width="54" height="54" viewBox="0 0 54 54" fill="none" xmlns="http://www.w3.org/2000/svg">
<path d="M16.7035 34.4773C16.3208 34.0136 16.349 33.3461 16.7459 32.9164L16.8633 32.8055L32.9619 19.517L22.3648 18.526C21.7118 18.465 21.2319 17.8862 21.2929 17.2332C21.3483 16.6396 21.8317 16.189 22.4098 16.1578L22.5857 16.1613L36.045 17.4185C36.1311 17.4265 36.2141 17.4436 36.2933 17.4686C36.3165 17.4766 36.3402 17.4849 36.3636 17.494C36.3843 17.5012 36.4046 17.5098 36.4246 17.5188C36.4532 17.5324 36.4822 17.5469 36.5106 17.5626C36.5329 17.5745 36.5535 17.5868 36.5737 17.5997C36.5985 17.616 36.6243 17.6339 36.6495 17.6529C36.6673 17.6659 36.6837 17.6791 36.6998 17.6926C36.7234 17.713 36.7472 17.7347 36.7701 17.7575C36.7879 17.7747 36.8047 17.7924 36.8209 17.8106C36.8305 17.8218 36.8406 17.8336 36.8505 17.8455L36.8793 17.8814C36.8934 17.8999 36.907 17.9189 36.9201 17.9383L36.8505 17.8455C36.8982 17.9033 36.9395 17.9643 36.9745 18.0276C36.983 18.0426 36.9912 18.0584 36.9991 18.0744C37.0154 18.1073 37.0298 18.14 37.0426 18.1732C37.0491 18.1897 37.0555 18.2076 37.0615 18.2256C37.0736 18.262 37.0836 18.2979 37.092 18.3341C37.096 18.351 37.0997 18.3691 37.103 18.3873C37.1084 18.4171 37.1125 18.4462 37.1156 18.4753C37.1178 18.4959 37.1195 18.5178 37.1206 18.5399L37.1214 18.557C37.1234 18.6096 37.1218 18.6622 37.1168 18.7145L37.1164 18.7163L35.8023 32.1713C35.7385 32.824 35.1577 33.3015 34.505 33.2377C33.9116 33.1798 33.463 32.6945 33.4343 32.1163L33.4385 31.9404L34.4715 21.3505L18.3752 34.637C17.8695 35.0546 17.121 34.983 16.7035 34.4773Z" fill="white"/>
</svg>
