<svg width="53" height="53" viewBox="0 0 53 53" fill="none" xmlns="http://www.w3.org/2000/svg">
<path d="M8.83337 25.8942C8.83337 25.0557 9.45646 24.3627 10.2649 24.253L10.4896 24.2379L39.6043 24.2392L29.086 13.7639C28.4378 13.1185 28.4356 12.0699 29.081 11.4217C29.6677 10.8324 30.5877 10.777 31.2372 11.2566L31.4233 11.4166L44.7837 24.7196C44.8691 24.8047 44.9433 24.8968 45.0063 24.994C45.0241 25.0233 45.0422 25.0532 45.0594 25.0837C45.0752 25.1099 45.0895 25.1371 45.1029 25.1646C45.1216 25.2046 45.1399 25.2459 45.1565 25.2881C45.1699 25.3206 45.1812 25.3522 45.1915 25.3841C45.2037 25.4236 45.2155 25.4657 45.2257 25.5084C45.2333 25.5383 45.2393 25.567 45.2445 25.5958C45.2519 25.6388 45.2582 25.6832 45.2626 25.7281C45.2665 25.7624 45.2688 25.7963 45.2701 25.8303C45.2705 25.8509 45.2709 25.8725 45.2709 25.8942L45.27 25.9583C45.2688 25.9908 45.2666 26.0233 45.2634 26.0557L45.2709 25.8942C45.2709 25.9987 45.2612 26.1009 45.2427 26.2001C45.2384 26.2238 45.2333 26.2481 45.2276 26.2723C45.2158 26.3221 45.2022 26.3702 45.1866 26.4172C45.1789 26.4406 45.1699 26.4656 45.1604 26.4904C45.141 26.5402 45.12 26.5877 45.0968 26.634C45.0861 26.6558 45.0741 26.6786 45.0614 26.7011C45.0407 26.7379 45.0194 26.7728 44.9969 26.8069C44.981 26.831 44.9634 26.8561 44.945 26.8808L44.9306 26.8999C44.886 26.9582 44.8376 27.0135 44.7858 27.0653L44.7838 27.0668L31.4234 40.3721C30.7752 41.0175 29.7265 41.0153 29.0811 40.3672C28.4943 39.778 28.4427 38.8577 28.9252 38.2103L29.0859 38.0249L39.5999 27.5517L10.4896 27.5504C9.5749 27.5504 8.83337 26.8089 8.83337 25.8942Z" fill="white"/>
</svg>
