<svg width="53" height="53" viewBox="0 0 53 53" fill="none" xmlns="http://www.w3.org/2000/svg">
<path d="M44.1666 27.1058C44.1666 27.9443 43.5435 28.6373 42.7351 28.747L42.5104 28.7621L13.3957 28.7608L23.914 39.2361C24.5622 39.8815 24.5644 40.9301 23.919 41.5783C23.3323 42.1676 22.4123 42.223 21.7628 41.7434L21.5767 41.5834L8.21632 28.2804C8.13087 28.1953 8.05666 28.1032 7.99368 28.006C7.97588 27.9767 7.95778 27.9468 7.94061 27.9163C7.92482 27.8901 7.91055 27.8629 7.89708 27.8354C7.87839 27.7954 7.86012 27.7541 7.84353 27.7119C7.83006 27.6794 7.8188 27.6478 7.80854 27.6159C7.79633 27.5764 7.78448 27.5343 7.77428 27.4916C7.7667 27.4617 7.76069 27.433 7.75546 27.4042C7.74809 27.3612 7.74182 27.3168 7.73735 27.2719C7.73349 27.2376 7.73116 27.2037 7.72988 27.1697C7.72955 27.1491 7.72913 27.1275 7.72913 27.1058L7.72996 27.0417C7.73123 27.0092 7.73345 26.9767 7.73662 26.9443L7.72913 27.1058C7.72913 27.0013 7.73881 26.8991 7.75732 26.7999C7.76162 26.7762 7.76673 26.7519 7.7724 26.7277C7.78416 26.6779 7.79776 26.6298 7.81342 26.5828C7.8211 26.5594 7.83005 26.5344 7.83962 26.5096C7.85897 26.4598 7.88001 26.4123 7.90315 26.366C7.91391 26.3442 7.92595 26.3214 7.93856 26.2989C7.95925 26.2621 7.98058 26.2272 8.00312 26.1931C8.01903 26.169 8.03664 26.1439 8.05504 26.1192L8.06937 26.1001C8.11399 26.0418 8.1624 25.9865 8.21423 25.9347L8.21622 25.9332L21.5766 12.6279C22.2248 11.9825 23.2735 11.9847 23.9189 12.6328C24.5057 13.222 24.5573 14.1423 24.0748 14.7897L23.9141 14.9751L13.4001 25.4483L42.5104 25.4496C43.4251 25.4496 44.1666 26.1911 44.1666 27.1058Z" fill="#121212"/>
</svg>
